solid OpenSCAD_Model
  facet normal 0 0 -1
    outer loop
      vertex -0.5625 5.005 -0.25
      vertex 0.0562496 5 -0.25
      vertex -0.167496 2.26999 -0.25
    endloop
  endfacet
  facet normal 0 0 -1
    outer loop
      vertex 0.167496 2.26999 -0.25
      vertex -0.167496 2.26999 -0.25
      vertex 0.0562496 5 -0.25
    endloop
  endfacet
  facet normal 0 0 -1
    outer loop
      vertex 0.292496 1.89499 -0.25
      vertex -0.167496 2.26999 -0.25
      vertex 0.167496 2.26999 -0.25
    endloop
  endfacet
  facet normal 0 -0 -1
    outer loop
      vertex -0.167496 2.26999 -0.25
      vertex 0.292496 1.89499 -0.25
      vertex -0.292496 1.89499 -0.25
    endloop
  endfacet
  facet normal 0 0 -1
    outer loop
      vertex 0.167496 2.26999 -0.25
      vertex 0.5625 5 -0.25
      vertex 0.5625 2.26999 -0.25
    endloop
  endfacet
  facet normal -0 0 -1
    outer loop
      vertex 0.5625 5 -0.25
      vertex 0.167496 2.26999 -0.25
      vertex 0.0562496 5 -0.25
    endloop
  endfacet
  facet normal 0 0 -1
    outer loop
      vertex -0.5625 5.005 -0.25
      vertex -0.167496 2.26999 -0.25
      vertex -0.5625 2.26999 -0.25
    endloop
  endfacet
  facet normal 0 0 -1
    outer loop
      vertex 0.0562496 5 -0.25
      vertex -0.5625 5.005 -0.25
      vertex 0.0562496 5.005 -0.25
    endloop
  endfacet
  facet normal -0 0 1
    outer loop
      vertex -0.5625 5.875 0
      vertex 0.562499 5 0
      vertex 0.5625 5.875 0
    endloop
  endfacet
  facet normal 0 0 1
    outer loop
      vertex 0.562499 5 0
      vertex -0.167496 2.26999 0
      vertex 0.167496 2.26999 0
    endloop
  endfacet
  facet normal 0 0 1
    outer loop
      vertex -0.5625 2.26999 0
      vertex 0.562499 5 0
      vertex -0.5625 5.875 0
    endloop
  endfacet
  facet normal 0 0 1
    outer loop
      vertex 0.562499 5 0
      vertex -0.5625 2.26999 0
      vertex -0.167496 2.26999 0
    endloop
  endfacet
  facet normal -0 0 1
    outer loop
      vertex 0.562499 5 0
      vertex 0.5625 2.26999 0
      vertex 0.5625 5 0
    endloop
  endfacet
  facet normal 0 0 1
    outer loop
      vertex 0.5625 2.26999 0
      vertex 0.562499 5 0
      vertex 0.167496 2.26999 0
    endloop
  endfacet
  facet normal -0 0 1
    outer loop
      vertex -0.167496 2.26999 0
      vertex 0.292496 1.89499 0
      vertex 0.167496 2.26999 0
    endloop
  endfacet
  facet normal 0 0 1
    outer loop
      vertex 0.292496 1.89499 0
      vertex -0.167496 2.26999 0
      vertex -0.292496 1.89499 0
    endloop
  endfacet
  facet normal 0 -1 0
    outer loop
      vertex 0.167496 2.26999 -0.25
      vertex 0.5625 2.26999 0
      vertex 0.167496 2.26999 0
    endloop
  endfacet
  facet normal 0 -1 -0
    outer loop
      vertex 0.5625 2.26999 0
      vertex 0.167496 2.26999 -0.25
      vertex 0.5625 2.26999 -0.25
    endloop
  endfacet
  facet normal 1 -0 0
    outer loop
      vertex 0.5625 2.26999 0
      vertex 0.5625 5 -0.25
      vertex 0.5625 5 0
    endloop
  endfacet
  facet normal 1 0 0
    outer loop
      vertex 0.5625 5 -0.25
      vertex 0.5625 2.26999 0
      vertex 0.5625 2.26999 -0.25
    endloop
  endfacet
  facet normal 0 1 0
    outer loop
      vertex 0.5625 5 0
      vertex 0.562499 5 -0.187484
      vertex 0.562499 5 0
    endloop
  endfacet
  facet normal 0 1 -0
    outer loop
      vertex 0.5625 5 -0.25
      vertex 0.562499 5 -0.187484
      vertex 0.5625 5 0
    endloop
  endfacet
  facet normal 0 1 0
    outer loop
      vertex 0.562499 5 -0.187484
      vertex 0.5625 5 -0.25
      vertex 0.562499 5 -0.249999
    endloop
  endfacet
  facet normal 0 1 0
    outer loop
      vertex 0.5625 5 -0.25
      vertex 0.112499 5 -0.249999
      vertex 0.562499 5 -0.249999
    endloop
  endfacet
  facet normal 0 1 0
    outer loop
      vertex 0.112499 5 -0.249999
      vertex 0.5625 5 -0.25
      vertex 0.0562496 5 -0.25
    endloop
  endfacet
  facet normal -1 0 0
    outer loop
      vertex -0.5625 5.005 -0.25
      vertex -0.5625 2.26999 -0.25
      vertex -0.5625 5.005 -0.189987
    endloop
  endfacet
  facet normal -1 0 0
    outer loop
      vertex -0.5625 5.005 -0.189987
      vertex -0.5625 5.875 0
      vertex -0.5625 5.625 -0.189987
    endloop
  endfacet
  facet normal -1 0 0
    outer loop
      vertex -0.5625 2.26999 0
      vertex -0.5625 5.005 -0.189987
      vertex -0.5625 2.26999 -0.25
    endloop
  endfacet
  facet normal -1 0 0
    outer loop
      vertex -0.5625 5.005 -0.189987
      vertex -0.5625 2.26999 0
      vertex -0.5625 5.875 0
    endloop
  endfacet
  facet normal 0 -1 0
    outer loop
      vertex -0.5625 2.26999 -0.25
      vertex -0.167496 2.26999 0
      vertex -0.5625 2.26999 0
    endloop
  endfacet
  facet normal 0 -1 -0
    outer loop
      vertex -0.167496 2.26999 0
      vertex -0.5625 2.26999 -0.25
      vertex -0.167496 2.26999 -0.25
    endloop
  endfacet
  facet normal -0.948683 0.316228 0
    outer loop
      vertex -0.292496 1.89499 -0.25
      vertex -0.167496 2.26999 0
      vertex -0.167496 2.26999 -0.25
    endloop
  endfacet
  facet normal -0.948683 0.316228 0
    outer loop
      vertex -0.167496 2.26999 0
      vertex -0.292496 1.89499 -0.25
      vertex -0.292496 1.89499 0
    endloop
  endfacet
  facet normal 0 -1 0
    outer loop
      vertex -0.292496 1.89499 -0.25
      vertex 0.292496 1.89499 0
      vertex -0.292496 1.89499 0
    endloop
  endfacet
  facet normal 0 -1 -0
    outer loop
      vertex 0.292496 1.89499 0
      vertex -0.292496 1.89499 -0.25
      vertex 0.292496 1.89499 -0.25
    endloop
  endfacet
  facet normal 0.948683 0.316228 0
    outer loop
      vertex 0.292496 1.89499 0
      vertex 0.167496 2.26999 -0.25
      vertex 0.167496 2.26999 0
    endloop
  endfacet
  facet normal 0.948683 0.316228 0
    outer loop
      vertex 0.167496 2.26999 -0.25
      vertex 0.292496 1.89499 0
      vertex 0.292496 1.89499 -0.25
    endloop
  endfacet
  facet normal -1 6.03901e-06 -7.9466e-06
    outer loop
      vertex -0.5625 5.875 0
      vertex -0.562499 5.625 -0.309998
      vertex -0.5625 5.625 -0.189987
    endloop
  endfacet
  facet normal -1 -1.703e-06 -1.703e-06
    outer loop
      vertex -0.562499 5.875 -0.559998
      vertex -0.562499 5.625 -0.309998
      vertex -0.5625 5.875 0
    endloop
  endfacet
  facet normal -1 7.62939e-07 7.62939e-07
    outer loop
      vertex -0.562499 5.625 -0.309998
      vertex -0.562499 5.875 -0.559998
      vertex -0.5625 4.625 -0.559998
    endloop
  endfacet
  facet normal -1 9.53674e-07 0
    outer loop
      vertex -0.5625 4.625 -0.309998
      vertex -0.562499 5.625 -0.309998
      vertex -0.5625 4.625 -0.559998
    endloop
  endfacet
  facet normal 1 0 0
    outer loop
      vertex 0.562499 5 -0.249999
      vertex 0.562499 5.005 -0.189986
      vertex 0.562499 5 -0.187484
    endloop
  endfacet
  facet normal 1 0 0
    outer loop
      vertex 0.562499 5.005 -0.189986
      vertex 0.562499 5 -0.249999
      vertex 0.562499 5.005 -0.249999
    endloop
  endfacet
  facet normal 1 -7.49316e-07 -1.5884e-06
    outer loop
      vertex 0.562499 5 0
      vertex 0.562499 5.005 -0.189986
      vertex 0.5625 5.875 0
    endloop
  endfacet
  facet normal 1 -7.9473e-07 -1.58959e-06
    outer loop
      vertex 0.562499 5.005 -0.189986
      vertex 0.562499 5 0
      vertex 0.562499 5 -0.187484
    endloop
  endfacet
  facet normal 1 -1.5382e-06 2.02409e-06
    outer loop
      vertex 0.5625 5.625 -0.189986
      vertex 0.5625 5.875 0
      vertex 0.562499 5.005 -0.189986
    endloop
  endfacet
  facet normal 1 0 0
    outer loop
      vertex 0.5625 5.625 -0.309997
      vertex 0.5625 5.875 0
      vertex 0.5625 5.625 -0.189986
    endloop
  endfacet
  facet normal 1 0 0
    outer loop
      vertex 0.5625 5.875 0
      vertex 0.5625 5.625 -0.309997
      vertex 0.5625 5.875 -0.559997
    endloop
  endfacet
  facet normal 1 -7.62939e-07 -7.62939e-07
    outer loop
      vertex 0.5625 5.875 -0.559997
      vertex 0.5625 5.625 -0.309997
      vertex 0.562499 4.625 -0.559997
    endloop
  endfacet
  facet normal 1 -9.53674e-07 0
    outer loop
      vertex 0.5625 5.625 -0.309997
      vertex 0.562499 4.625 -0.309997
      vertex 0.562499 4.625 -0.559997
    endloop
  endfacet
  facet normal 0 1 0
    outer loop
      vertex 0.112499 5.005 -0.249999
      vertex 0.112499 5.005 -0.189986
      vertex 0.562499 5.005 -0.189986
    endloop
  endfacet
  facet normal 0 1 0
    outer loop
      vertex 0.112499 5.005 -0.249999
      vertex 0.562499 5.005 -0.189986
      vertex 0.562499 5.005 -0.249999
    endloop
  endfacet
  facet normal 0 1 0
    outer loop
      vertex 0.112499 5.005 -0.189986
      vertex 0.112499 5.005 -0.249999
      vertex 0.0562496 5.005 -0.189987
    endloop
  endfacet
  facet normal 0 1 0
    outer loop
      vertex 0.0562496 5.005 -0.25
      vertex 0.0562496 5.005 -0.189987
      vertex 0.112499 5.005 -0.249999
    endloop
  endfacet
  facet normal 0 1 0
    outer loop
      vertex 0.0562496 5.005 -0.189987
      vertex 0.0562496 5.005 -0.25
      vertex -0.5625 5.005 -0.189987
    endloop
  endfacet
  facet normal 0 1 0
    outer loop
      vertex -0.5625 5.005 -0.189987
      vertex 0.0562496 5.005 -0.25
      vertex -0.5625 5.005 -0.25
    endloop
  endfacet
  facet normal 0 0 -1
    outer loop
      vertex -0.5625 5.005 -0.189987
      vertex 0.0562496 5.625 -0.189987
      vertex 0.0562496 5.005 -0.189987
    endloop
  endfacet
  facet normal -0 0 -1
    outer loop
      vertex 0.0562496 5.625 -0.189987
      vertex -0.5625 5.005 -0.189987
      vertex -0.5625 5.625 -0.189987
    endloop
  endfacet
  facet normal 0 -1 0
    outer loop
      vertex -0.562499 5.625 -0.309998
      vertex 0.0562496 5.625 -0.189987
      vertex -0.5625 5.625 -0.189987
    endloop
  endfacet
  facet normal 0 -1 -0
    outer loop
      vertex 0.0562496 5.625 -0.189987
      vertex -0.562499 5.625 -0.309998
      vertex 0.112499 5.625 -0.309998
    endloop
  endfacet
  facet normal 0 -1 0
    outer loop
      vertex 0.0562496 5.625 -0.189987
      vertex 0.112499 5.625 -0.309998
      vertex 0.16875 5.625 -0.309997
    endloop
  endfacet
  facet normal 0 -1 0
    outer loop
      vertex 0.16875 5.625 -0.309997
      vertex 0.112499 5.625 -0.189986
      vertex 0.0562496 5.625 -0.189987
    endloop
  endfacet
  facet normal 0 -1 0
    outer loop
      vertex 0.112499 5.625 -0.189986
      vertex 0.16875 5.625 -0.309997
      vertex 0.5625 5.625 -0.189986
    endloop
  endfacet
  facet normal 0 -1 -0
    outer loop
      vertex 0.5625 5.625 -0.189986
      vertex 0.16875 5.625 -0.309997
      vertex 0.5625 5.625 -0.309997
    endloop
  endfacet
  facet normal -0 0 1
    outer loop
      vertex -0.562499 5.625 -0.309998
      vertex 0.112499 4.625 -0.309998
      vertex 0.112499 5.625 -0.309998
    endloop
  endfacet
  facet normal 0 0 1
    outer loop
      vertex 0.112499 4.625 -0.309998
      vertex -0.562499 5.625 -0.309998
      vertex -0.5625 4.625 -0.309998
    endloop
  endfacet
  facet normal 0 -1 0
    outer loop
      vertex -0.5625 4.625 -0.559998
      vertex 0.112499 4.625 -0.309998
      vertex -0.5625 4.625 -0.309998
    endloop
  endfacet
  facet normal 0 -1 -0
    outer loop
      vertex 0.112499 4.625 -0.309998
      vertex -0.5625 4.625 -0.559998
      vertex 0.224999 4.625 -0.559998
    endloop
  endfacet
  facet normal 0 -1 0
    outer loop
      vertex 0.112499 4.625 -0.309998
      vertex 0.224999 4.625 -0.559998
      vertex 0.281249 4.625 -0.559997
    endloop
  endfacet
  facet normal 0 -1 0
    outer loop
      vertex 0.281249 4.625 -0.559997
      vertex 0.16875 4.625 -0.309997
      vertex 0.112499 4.625 -0.309998
    endloop
  endfacet
  facet normal 0 -1 0
    outer loop
      vertex 0.16875 4.625 -0.309997
      vertex 0.281249 4.625 -0.559997
      vertex 0.562499 4.625 -0.309997
    endloop
  endfacet
  facet normal 0 -1 -0
    outer loop
      vertex 0.562499 4.625 -0.309997
      vertex 0.281249 4.625 -0.559997
      vertex 0.562499 4.625 -0.559997
    endloop
  endfacet
  facet normal 0 0 -1
    outer loop
      vertex 0.224999 4.625 -0.559998
      vertex -0.562499 5.875 -0.559998
      vertex 0.224999 5.875 -0.559998
    endloop
  endfacet
  facet normal 0 -0 -1
    outer loop
      vertex -0.562499 5.875 -0.559998
      vertex 0.224999 4.625 -0.559998
      vertex -0.5625 4.625 -0.559998
    endloop
  endfacet
  facet normal 0 1 0
    outer loop
      vertex 0.28125 5.875 -0.559997
      vertex 0.5625 5.875 0
      vertex 0.5625 5.875 -0.559997
    endloop
  endfacet
  facet normal 0 1 0
    outer loop
      vertex 0.224999 5.875 -0.559998
      vertex 0.5625 5.875 0
      vertex 0.28125 5.875 -0.559997
    endloop
  endfacet
  facet normal 0 1 0
    outer loop
      vertex 0.5625 5.875 0
      vertex 0.224999 5.875 -0.559998
      vertex -0.5625 5.875 0
    endloop
  endfacet
  facet normal 0 1 0
    outer loop
      vertex -0.5625 5.875 0
      vertex 0.224999 5.875 -0.559998
      vertex -0.562499 5.875 -0.559998
    endloop
  endfacet
  facet normal 1.69543e-05 0 -1
    outer loop
      vertex 0.0562496 5 -0.25
      vertex 0.112499 5.005 -0.249999
      vertex 0.112499 5 -0.249999
    endloop
  endfacet
  facet normal 1.69543e-05 0 -1
    outer loop
      vertex 0.112499 5.005 -0.249999
      vertex 0.0562496 5 -0.25
      vertex 0.0562496 5.005 -0.25
    endloop
  endfacet
  facet normal 1.69543e-05 0 -1
    outer loop
      vertex 0.0562496 5.005 -0.189987
      vertex 0.112499 5.625 -0.189986
      vertex 0.112499 5.005 -0.189986
    endloop
  endfacet
  facet normal 1.69543e-05 0 -1
    outer loop
      vertex 0.112499 5.625 -0.189986
      vertex 0.0562496 5.005 -0.189987
      vertex 0.0562496 5.625 -0.189987
    endloop
  endfacet
  facet normal 0 0 -1
    outer loop
      vertex 0.112499 5 -0.249999
      vertex 0.562499 5.005 -0.249999
      vertex 0.562499 5 -0.249999
    endloop
  endfacet
  facet normal -0 0 -1
    outer loop
      vertex 0.562499 5.005 -0.249999
      vertex 0.112499 5 -0.249999
      vertex 0.112499 5.005 -0.249999
    endloop
  endfacet
  facet normal 0 0 -1
    outer loop
      vertex 0.112499 5.005 -0.189986
      vertex 0.5625 5.625 -0.189986
      vertex 0.562499 5.005 -0.189986
    endloop
  endfacet
  facet normal -0 0 -1
    outer loop
      vertex 0.5625 5.625 -0.189986
      vertex 0.112499 5.005 -0.189986
      vertex 0.112499 5.625 -0.189986
    endloop
  endfacet
  facet normal -1.6954e-05 0 1
    outer loop
      vertex 0.112499 5.625 -0.309998
      vertex 0.16875 4.625 -0.309997
      vertex 0.16875 5.625 -0.309997
    endloop
  endfacet
  facet normal -1.6954e-05 0 1
    outer loop
      vertex 0.16875 4.625 -0.309997
      vertex 0.112499 5.625 -0.309998
      vertex 0.112499 4.625 -0.309998
    endloop
  endfacet
  facet normal -0 0 1
    outer loop
      vertex 0.16875 5.625 -0.309997
      vertex 0.562499 4.625 -0.309997
      vertex 0.5625 5.625 -0.309997
    endloop
  endfacet
  facet normal 0 0 1
    outer loop
      vertex 0.562499 4.625 -0.309997
      vertex 0.16875 5.625 -0.309997
      vertex 0.16875 4.625 -0.309997
    endloop
  endfacet
  facet normal 1.69543e-05 0 -1
    outer loop
      vertex 0.224999 5.875 -0.559998
      vertex 0.281249 4.625 -0.559997
      vertex 0.224999 4.625 -0.559998
    endloop
  endfacet
  facet normal 1.6954e-05 -1.29349e-11 -1
    outer loop
      vertex 0.28125 5.875 -0.559997
      vertex 0.281249 4.625 -0.559997
      vertex 0.224999 5.875 -0.559998
    endloop
  endfacet
  facet normal 0 0 -1
    outer loop
      vertex 0.562499 4.625 -0.559997
      vertex 0.28125 5.875 -0.559997
      vertex 0.5625 5.875 -0.559997
    endloop
  endfacet
  facet normal 0 -0 -1
    outer loop
      vertex 0.28125 5.875 -0.559997
      vertex 0.562499 4.625 -0.559997
      vertex 0.281249 4.625 -0.559997
    endloop
  endfacet
endsolid OpenSCAD_Model
